<svg height="475pt" viewBox="-5 0 475 475.6" width="475pt" xmlns="http://www.w3.org/2000/svg"><path d="m344.300781 79c0-5.601562-3.199219-11.199219-8-13.601562l-96-55.199219c-4.800781-3.199219-11.199219-3.199219-16 0l-96 55.199219c-4.800781 3.203124-8 8-8 13.601562v126.398438l112 64 112-64zm0 0" fill="#b4b4b5"/><path d="m232.300781 269.398438 72-40.796876v-43.203124c0-7.199219-4.800781-12.796876-11.199219-15.199219l-36.800781-12.800781 11.199219-11.199219c3.199219-3.199219 4.800781-7.199219 4.800781-11.199219v-57.601562c0-8.796876-7.199219-16-16-16h-48c-8.800781 0-16 7.203124-16 16v57.601562c0 4 1.597657 8 4.800781 11.199219l11.199219 11.199219-36.800781 12c-6.398438 2.402343-11.199219 8-11.199219 15.203124v43.199219zm0 0" fill="#efccbf"/><path d="m192.300781 117.398438c0-10.398438 8-18.398438 18.398438-18.398438 3.199219 0 6.402343.800781 9.601562 2.398438l12 8 12.800781-7.199219c8.796876-4.800781 20-2.398438 24.796876 6.402343 1.601562 3.199219 2.402343 6.398438 2.402343 9.597657v-40c0-8.800781-7.199219-16-16-16h-48c-8.800781 0-16 7.199219-16 16zm0 0" fill="#704d4d"/><path d="m293.101562 169.398438-36.800781-12-24 24 16.800781 16.800781c4.796876 4.800781 5.597657 11.199219 4 16.800781l-20.800781 54.398438 72-40.796876v-43.203124c0-7.199219-4.800781-13.597657-11.199219-16zm0 0" fill="#3a6289"/><path d="m212.300781 215c-2.402343-5.601562-.800781-12.800781 4-16.800781l16-16.800781-24-24-36.800781 12c-6.398438 2.402343-11.199219 8-11.199219 15.203124v43.199219l72 40.800781zm0 0" fill="#3a6289"/><path d="m232.300781 181.398438-16.800781 16.800781c-4.800781 4.800781-5.601562 11.199219-4 16.800781l20.800781 54.398438 20-54.398438c2.398438-5.601562.800781-12.800781-4-16.800781zm0 0" fill="#edd9be"/><path d="m232.300781 405.398438v-136l-112-64-104 59.203124c-4.800781 3.199219-8 8-8 13.597657v127.199219l104 59.203124c4.800781 3.199219 11.199219 3.199219 16 0zm0 0" fill="#d6d7d8"/><path d="m178.699219 308.601562c-2.398438-32-30.398438-56-63.199219-53.601562-28.800781 2.398438-52 24.800781-53.601562 53.601562l-5.597657 80.796876h128zm0 0" fill="#704d4d"/><path d="m180.300781 381.398438-32.800781-9.597657c-7.199219-1.601562-12-8-12-15.199219v-12l6.398438-12.800781c.800781-2.402343 1.601562-4.800781 1.601562-7.199219v-15.203124c0-13.597657-10.398438-24-24-24s-24 10.402343-24 24v15.203124c0 2.398438.800781 4.796876 1.601562 7.199219l6.398438 12.800781v12c0 7.199219-4.800781 13.597657-12 15.199219l-31.199219 9.597657c-7.199219 1.601562-12 8-12 15.203124v32l64 36.796876c4.800781 3.203124 11.199219 3.203124 16 0l64-36.796876v-32c0-7.203124-4.800781-13.601562-12-15.203124zm0 0" fill="#efccbf"/><path d="m98.699219 367.800781c-.800781.800781-1.597657 1.597657-2.398438 2.398438s-2.402343 1.601562-4 1.601562l-32 9.597657c-7.199219 1.601562-12 8-12 15.203124v32l64 36.796876c2.398438 1.601562 4.800781 2.402343 8 2.402343v-78.402343zm0 0" fill="#d3756e"/><path d="m96.300781 455.800781 16 8.800781c4.800781 3.199219 11.199219 3.199219 16 0l64-36.800781v-32c0-7.199219-4.800781-13.601562-12-15.199219l-32.800781-9.601562c-2.398438-.800781-4.800781-2.398438-6.398438-4l-20.800781 22.398438-24 24zm0 0" fill="#e57e73"/><path d="m456.300781 279c0-5.601562-3.199219-11.199219-8-13.601562l-104-60-112 64v136l104 59.203124c4.800781 3.199219 11.199219 3.199219 16 0l104-59.203124zm0 0" fill="#e9e9e9"/><path d="m416.300781 385.398438c0-7.199219-4.800781-12.796876-11.199219-15.199219l-36.800781-12.800781 13.597657-20c1.601562-2.398438 2.402343-5.597657 2.402343-8.796876v-27.203124l-40-8-40 8v27.203124c0 3.199219.800781 6.398438 2.398438 8.796876l13.601562 20-36.800781 12c-6.398438 2.402343-11.199219 8-11.199219 15.203124v43.199219l64 36.800781c4.800781 3.199219 11.199219 3.199219 16 0l64-36.800781zm0 0" fill="#efccbf"/><path d="m368.300781 357.398438c-9.601562 13.601562-28.800781 16-41.601562 6.402343-2.398438-1.601562-4-4-6.398438-6.402343l-36.800781 12c-6.398438 2.402343-11.199219 8-11.199219 15.203124v43.199219l64 36.800781c4.800781 3.199219 11.199219 3.199219 16 0l64-36.800781v-43.199219c0-7.203124-4.800781-12.800781-11.199219-15.203124zm0 0" fill="#5da364"/><path d="m320.300781 261.398438c-8.800781 0-16 7.203124-16 16v24l40-8 40 8v-40zm0 0" fill="#704d4d"/><g fill="#538457"><path d="m336.300781 389.398438h16v16h-16zm0 0"/><path d="m336.300781 421.398438h16v16h-16zm0 0"/><path d="m368.300781 389.398438h24v16h-24zm0 0"/></g><path d="m272.300781 189.398438h16v16h-16zm0 0" fill="#4282b7"/><path d="m144.300781 397.398438h24v16h-24zm0 0" fill="#f78b7c"/><path d="m452.300781 258.199219-100-57.597657v-121.601562c0-8.800781-4.800781-16.800781-12-20.800781l-96-55.199219c-7.199219-4-16.800781-4-24 0l-96 55.199219c-7.199219 4-12 12-12 20.800781v122.398438l-100 56.800781c-7.199219 4-12 12-12 20.800781v117.601562c0 8.796876 4.800781 16.796876 12 20.796876l96 55.203124c7.199219 4 16.800781 4 24 0l100-57.601562 100 56.800781c7.199219 4 16.800781 4 24 0l96-55.199219c7.199219-4 12-12 12-20.800781v-116.800781c0-8.800781-4.800781-16.800781-12-20.800781zm-320-186.398438 96-55.199219c2.398438-1.601562 5.597657-1.601562 8 0l96 55.199219c2.398438 1.597657 4 4 4 7.199219v122.398438l-24 13.601562v-29.601562c0-10.398438-6.402343-19.199219-16.800781-22.398438l-24.800781-8 2.402343-2.398438c4.796876-4.800781 7.199219-10.402343 7.199219-16.800781v-58.402343c0-13.597657-10.402343-24-24-24h-48c-13.601562 0-24 10.402343-24 24v57.601562c0 6.398438 2.398438 12.800781 7.199219 16.800781l2.398438 2.398438-24.796876 8c-10.402343 3.199219-16.800781 12-16.800781 22.402343v29.597657l-24-13.597657v-121.601562c0-3.199219 1.597657-5.601562 4-7.199219zm132 21.597657c-8-3.199219-16.800781-3.199219-23.199219 1.601562l-8.800781 4.800781-8.800781-4.800781c-7.199219-4-16-4.800781-23.199219-1.601562v-16c0-4.796876 3.199219-8 8-8h48c4.800781 0 8 3.203124 8 8zm-64 24c0-5.597657 4.800781-10.398438 10.398438-10.398438 1.601562 0 4 .800781 5.601562 1.601562l16.800781 10.398438 16.796876-10.398438c4.800781-3.203124 11.203124-1.601562 13.601562 3.199219.800781 1.597657 1.601562 3.199219 1.601562 5.597657v17.601562c0 2.398438-.800781 4-2.402343 5.601562l-20 20-10.398438 9.597657-8.800781-8.800781-8.800781-8.796876-11.199219-11.203124c-1.601562-1.597657-2.398438-3.199219-2.398438-5.597657v-18.402343zm5.597657 48.800781 15.203124 15.199219-11.203124 11.203124c-6.398438 6.398438-8.796876 16.796876-5.597657 25.597657l12.800781 33.601562-48.800781-28v-38.402343c0-3.199219 2.398438-6.398438 5.597657-7.199219zm37.601562 37.601562c2.398438 2.398438 3.199219 5.597657 1.601562 8.800781l-12.800781 34.398438-12.800781-34.398438c-.800781-3.203124 0-6.402343 1.601562-8.800781l11.199219-11.199219zm11.199219-11.199219-11.199219-11.203124 15.199219-15.199219 32 10.402343c3.199219.796876 5.601562 4 5.601562 7.199219v38.398438l-48.800781 28 12.800781-33.597657c3.199219-7.203124.800781-17.601562-5.601562-24zm-238.398438 203.199219v-116.800781c0-3.199219 1.597657-5.601562 4-7.199219l100-56.800781 100 56.800781c1.597657.800781 2.398438.800781 4 1.597657v127.203124l-24 13.597657v-17.597657c0-7.203124-3.199219-13.601562-8-17.601562l-5.601562-71.199219c-3.199219-36.800781-35.199219-64-71.199219-61.601562-32.800781 2.402343-58.398438 28.800781-61.601562 61.601562l-5.597657 71.199219c-4.800781 4.800781-8 11.199219-8 17.601562v17.597657l-20-11.199219c-2.402343-1.601562-4-4-4-7.199219zm72 46.398438-32-18.398438v-27.199219c0-3.203124 2.398438-6.402343 5.597657-8l32.800781-9.601562c.800781 0 2.402343-.800781 3.199219-.800781l11.203124 11.199219-20.800781 20.800781zm32-64-10.402343-10.398438c1.601562-3.199219 2.402343-7.199219 2.402343-11.199219v-13.601562l-7.199219-14.398438c-.800781-1.601562-.800781-2.402343-.800781-4v-15.203124c0-8.796876 7.199219-16 16-16s16 7.203124 16 16v15.203124c0 1.597657 0 2.398438-.800781 3.199219l-7.199219 15.199219v13.601562c0 4 .800781 7.199219 2.398438 11.199219zm24-21.597657v-10.402343l5.597657-11.199219c1.601562-3.199219 2.402343-7.199219 2.402343-10.398438v-15.203124c0-17.597657-14.402343-32-32-32-17.601562 0-32 14.402343-32 32v15.203124c0 4 .800781 7.199219 2.398438 10.398438l5.601562 11.199219v10.402343c0 3.199219-2.402343 6.398438-5.601562 8l-25.597657 7.199219 4.796876-62.402343c2.402343-28 26.402343-48.796876 54.402343-46.398438 24.800781 1.601562 44.800781 21.601562 46.398438 46.398438l4.800781 62.402343-25.601562-7.199219c-3.199219-1.601562-5.597657-4.800781-5.597657-8zm-20 101.597657c-2.402343 1.601562-5.601562 1.601562-8 0l-12-7.199219v-34.398438l38.398438-38.402343c.800781.800781 2.402343.800781 3.199219.800781l32.800781 9.601562c3.199219.796876 5.601562 4 5.601562 8v27.199219zm224 0c-2.402343 1.601562-5.601562 1.601562-8 0l-60-34.398438v-38.402343c0-3.199219 2.398438-6.398438 5.597657-7.199219l32-10.398438c14.402343 14.398438 38.402343 14.398438 52.800781 0l32 10.398438c3.199219.800781 5.601562 4 5.601562 7.199219v38.402343zm-36-148.800781v-1.597657l32-6.402343 32 6.402343v20.800781c0 1.597657-.800781 3.199219-1.601562 4.796876l-12.800781 20c-7.199219 9.601562-20.796876 12-30.398438 4-1.601562-1.597657-3.199219-2.398438-4-4l-12.800781-20c-.800781-1.597657-1.597657-3.199219-1.597657-4.796876v-19.203124zm64-17.597657-32-6.402343-32 6.402343v-14.402343c0-4.796876 3.199219-8 8-8h56zm72 104c0 3.199219-1.601562 5.597657-4 7.199219l-20 11.199219v-29.597657c0-10.402343-6.402343-19.203124-16.800781-22.402343l-27.199219-8.800781 7.199219-11.199219c2.398438-4 4-8.800781 4-13.597657v-75.203124h-72c-13.601562 0-24 10.402343-24 24v51.203124c0 4.796876 1.601562 9.597657 4 13.597657l7.199219 11.199219-27.199219 8.800781c-8.800781 3.199219-15.199219 12-15.199219 22.402343v29.597657l-24-13.597657v-127.203124c1.597657-.796876 2.398438-.796876 4-1.597657l100-56.800781 100 56.800781c2.398438 1.597657 4 4 4 7.199219zm0 0"/><path d="m144.300781 397.398438h24v16h-24zm0 0"/><path d="m336.300781 389.398438h16v16h-16zm0 0"/><path d="m336.300781 421.398438h16v16h-16zm0 0"/><path d="m368.300781 389.398438h24v16h-24zm0 0"/><path d="m272.300781 189.398438h16v16h-16zm0 0"/></svg>